<svg id="svg" version="1.1" xmlns="http://www.w3.org/2000/svg" xmlns:xlink="http://www.w3.org/1999/xlink" width="400" height="400" viewBox="0, 0, 400,400"><g id="svgg"><path id="path0" d="M174.239 75.887 C 171.374 76.326,170.353 79.409,172.360 81.558 L 173.521 82.800 185.153 82.800 L 196.785 82.800 197.007 83.700 C 197.129 84.195,197.177 87.570,197.114 91.200 L 197.000 97.800 166.400 98.000 C 137.807 98.187,135.669 98.249,133.800 98.946 C 127.081 101.452,123.306 105.280,121.185 111.740 C 120.209 114.714,119.960 252.050,120.924 255.600 C 123.180 263.905,131.106 270.000,139.651 270.000 C 143.711 270.000,143.739 269.549,139.153 277.900 C 136.670 282.422,135.592 284.417,132.507 290.200 C 130.746 293.500,128.951 296.830,128.518 297.600 C 128.085 298.370,126.864 300.620,125.804 302.600 C 124.745 304.580,123.427 307.010,122.877 308.000 C 122.326 308.990,120.979 311.510,119.884 313.600 C 118.788 315.690,117.706 317.634,117.480 317.920 C 116.929 318.617,117.580 319.197,120.726 320.811 C 123.562 322.267,123.436 322.318,125.236 319.000 C 125.952 317.680,126.939 315.880,127.430 315.000 L 128.322 313.400 199.928 313.299 L 271.533 313.198 272.327 314.499 C 272.763 315.215,273.781 317.060,274.589 318.600 C 276.611 322.452,276.382 322.365,279.791 320.575 C 283.279 318.744,283.183 319.018,281.449 315.860 C 280.706 314.507,279.473 312.230,278.708 310.800 C 277.944 309.370,276.863 307.390,276.306 306.400 C 275.749 305.410,274.672 303.430,273.914 302.000 C 273.155 300.570,271.312 297.150,269.819 294.400 C 265.126 285.760,264.536 284.670,262.994 281.800 C 262.167 280.260,260.975 278.055,260.345 276.900 C 256.302 269.486,256.309 270.000,260.254 270.000 C 269.081 270.000,276.288 264.495,279.143 255.572 C 279.797 253.528,279.797 114.472,279.143 112.428 C 277.002 105.738,272.258 100.875,265.800 98.752 C 264.561 98.344,257.480 98.178,234.400 98.013 L 204.600 97.800 204.486 91.200 C 204.423 87.570,204.471 84.195,204.593 83.700 L 204.815 82.800 215.938 82.800 C 228.808 82.800,228.800 82.802,228.800 79.120 C 228.800 75.617,230.370 75.807,201.000 75.754 C 186.920 75.729,174.878 75.789,174.239 75.887 M161.606 112.862 C 162.841 113.292,166.561 115.493,177.400 122.205 C 179.820 123.704,182.204 125.125,182.697 125.365 C 183.190 125.604,183.595 125.935,183.597 126.100 C 183.599 126.265,183.793 126.400,184.028 126.400 C 184.263 126.400,185.241 126.940,186.200 127.600 C 187.159 128.260,188.092 128.804,188.272 128.809 C 188.452 128.814,189.050 129.170,189.600 129.600 C 191.015 130.707,192.000 130.633,192.000 129.419 C 192.000 128.469,189.131 126.000,188.028 126.000 C 187.793 126.000,187.600 125.820,187.600 125.600 C 187.600 125.380,187.407 125.200,187.172 125.200 C 186.937 125.200,185.959 124.660,185.000 124.000 C 184.041 123.340,183.151 122.800,183.022 122.800 C 182.893 122.800,181.845 122.193,180.694 121.450 C 179.542 120.708,176.440 118.790,173.800 117.187 C 168.036 113.689,167.386 113.183,168.091 112.736 C 168.371 112.558,182.370 112.415,199.200 112.419 L 229.800 112.425 232.000 113.545 C 234.034 114.580,242.124 119.464,247.127 122.678 C 248.297 123.429,249.827 124.369,250.527 124.767 C 253.264 126.323,256.206 128.214,256.333 128.500 C 256.407 128.665,256.677 128.804,256.933 128.809 C 257.190 128.814,257.850 129.170,258.400 129.600 C 259.955 130.816,261.863 130.196,260.976 128.762 C 260.711 128.333,256.158 125.200,255.800 125.200 C 255.666 125.200,254.496 124.480,253.200 123.600 C 251.904 122.720,250.731 122.000,250.594 122.000 C 250.457 122.000,249.592 121.486,248.672 120.857 C 247.752 120.228,244.930 118.485,242.400 116.984 C 234.475 112.281,234.352 112.399,247.133 112.402 C 258.586 112.405,260.777 112.844,263.455 115.674 C 266.354 118.736,266.188 117.070,266.312 144.338 L 266.424 168.876 265.436 170.938 C 264.151 173.619,263.769 174.057,261.414 175.550 L 259.443 176.800 200.159 176.800 L 140.876 176.800 139.196 175.903 C 136.903 174.680,135.656 173.364,134.546 171.000 L 133.608 169.000 133.604 145.115 C 133.599 118.140,133.560 118.520,136.697 115.541 C 139.498 112.882,141.275 112.515,151.640 112.452 C 157.273 112.418,160.742 112.561,161.606 112.862 M227.767 206.243 C 228.420 206.493,228.693 210.370,228.157 211.767 C 227.786 212.735,172.214 212.735,171.843 211.767 C 171.417 210.658,171.582 206.978,172.080 206.480 C 172.589 205.971,226.462 205.742,227.767 206.243 M228.200 221.400 L 228.200 224.200 200.000 224.200 L 171.800 224.200 171.675 222.227 C 171.606 221.141,171.655 219.835,171.783 219.324 L 172.017 218.395 200.108 218.497 L 228.200 218.600 228.200 221.400 M146.129 237.608 C 153.716 240.446,155.790 249.983,150.135 256.029 C 143.148 263.498,131.000 258.528,131.000 248.200 C 131.000 239.935,138.436 234.729,146.129 237.608 M260.828 237.300 C 268.852 239.783,271.339 250.323,265.290 256.204 C 255.425 265.791,240.478 253.157,248.116 241.687 C 250.755 237.724,256.165 235.857,260.828 237.300 M248.491 270.700 C 249.936 272.345,252.441 277.727,251.917 278.060 C 251.249 278.483,148.763 278.491,148.096 278.068 C 147.586 277.744,150.102 272.321,151.514 270.700 C 152.089 270.041,154.903 270.000,200.000 270.000 C 245.095 270.000,247.912 270.041,248.491 270.700 M257.425 287.094 C 257.819 287.696,258.625 289.091,259.216 290.194 C 261.741 294.908,263.202 297.599,264.935 300.729 C 265.949 302.560,266.828 304.360,266.889 304.729 C 266.997 305.382,134.966 306.049,133.271 305.404 C 132.764 305.211,133.554 303.539,137.997 295.400 C 138.597 294.300,139.676 292.320,140.393 291.000 C 141.111 289.680,142.051 288.015,142.482 287.300 L 143.265 286.000 199.987 286.000 L 256.708 286.000 257.425 287.094 " stroke="none" fill="#fafbfb" fill-rule="evenodd"></path><path id="path1" d="M184.800 26.738 C 184.800 26.925,182.058 27.201,178.707 27.352 C 175.355 27.503,172.439 27.801,172.227 28.013 C 172.014 28.226,170.987 28.400,169.944 28.400 C 168.901 28.400,167.936 28.580,167.800 28.800 C 167.664 29.020,166.674 29.200,165.600 29.200 C 164.526 29.200,163.536 29.380,163.400 29.600 C 163.264 29.820,162.544 30.000,161.800 30.000 C 161.056 30.000,160.336 30.180,160.200 30.400 C 160.064 30.620,159.243 30.800,158.376 30.800 C 157.509 30.800,156.800 30.980,156.800 31.200 C 156.800 31.420,156.181 31.600,155.424 31.600 C 154.667 31.600,153.936 31.780,153.800 32.000 C 153.664 32.220,153.023 32.400,152.376 32.400 C 151.729 32.400,151.200 32.580,151.200 32.800 C 151.200 33.020,150.581 33.200,149.824 33.200 C 149.067 33.200,148.336 33.380,148.200 33.600 C 148.064 33.820,147.513 34.000,146.976 34.000 C 146.439 34.000,146.000 34.180,146.000 34.400 C 146.000 34.620,145.460 34.800,144.800 34.800 C 144.140 34.800,143.600 34.980,143.600 35.200 C 143.600 35.420,143.060 35.600,142.400 35.600 C 141.740 35.600,141.200 35.747,141.200 35.928 C 141.200 36.108,140.300 36.500,139.200 36.800 C 138.100 37.100,137.200 37.492,137.200 37.672 C 137.200 37.853,136.761 38.000,136.224 38.000 C 135.687 38.000,135.136 38.180,135.000 38.400 C 134.864 38.620,134.403 38.800,133.976 38.800 C 133.549 38.800,133.200 38.980,133.200 39.200 C 133.200 39.420,132.750 39.600,132.200 39.600 C 131.650 39.600,131.200 39.780,131.200 40.000 C 131.200 40.220,130.750 40.400,130.200 40.400 C 129.650 40.400,129.200 40.546,129.200 40.725 C 129.200 40.904,128.570 41.298,127.800 41.600 C 127.030 41.902,126.400 42.296,126.400 42.475 C 126.400 42.654,126.050 42.800,125.621 42.800 C 125.193 42.800,123.996 43.250,122.962 43.800 C 121.927 44.350,120.838 44.800,120.540 44.800 C 120.243 44.800,120.000 44.980,120.000 45.200 C 120.000 45.420,119.640 45.600,119.200 45.600 C 118.760 45.600,118.400 45.780,118.400 46.000 C 118.400 46.220,118.040 46.400,117.600 46.400 C 117.160 46.400,116.800 46.536,116.800 46.702 C 116.800 46.869,116.215 47.258,115.500 47.568 C 114.785 47.877,113.448 48.641,112.528 49.265 C 111.608 49.889,110.663 50.400,110.428 50.400 C 110.193 50.400,110.000 50.580,110.000 50.800 C 110.000 51.020,109.764 51.200,109.475 51.200 C 109.187 51.200,108.564 51.560,108.092 52.000 C 107.620 52.440,106.996 52.800,106.705 52.800 C 106.414 52.800,105.917 53.160,105.600 53.600 C 105.283 54.040,104.743 54.400,104.400 54.400 C 104.057 54.400,103.517 54.760,103.200 55.200 C 102.883 55.640,102.343 56.000,102.000 56.000 C 101.657 56.000,101.117 56.360,100.800 56.800 C 100.483 57.240,100.020 57.600,99.771 57.600 C 99.522 57.600,98.754 58.140,98.063 58.800 C 97.372 59.460,96.643 60.000,96.441 60.000 C 96.033 60.000,93.282 62.140,91.311 63.990 C 90.603 64.655,89.826 65.200,89.585 65.200 C 89.345 65.200,88.305 66.060,87.274 67.111 C 86.243 68.162,84.770 69.463,84.000 70.002 C 83.230 70.542,81.380 72.247,79.890 73.791 C 76.641 77.158,77.313 76.487,73.300 80.372 C 71.485 82.128,70.000 83.738,70.000 83.948 C 70.000 84.158,68.920 85.427,67.600 86.768 C 66.280 88.108,65.200 89.389,65.200 89.614 C 65.200 89.839,64.655 90.603,63.990 91.311 C 62.140 93.282,60.000 96.033,60.000 96.441 C 60.000 96.643,59.460 97.372,58.800 98.063 C 58.140 98.754,57.600 99.522,57.600 99.771 C 57.600 100.020,57.240 100.483,56.800 100.800 C 56.360 101.117,56.000 101.657,56.000 102.000 C 56.000 102.343,55.640 102.883,55.200 103.200 C 54.760 103.517,54.400 104.057,54.400 104.400 C 54.400 104.743,54.040 105.283,53.600 105.600 C 53.160 105.917,52.800 106.414,52.800 106.705 C 52.800 106.996,52.440 107.620,52.000 108.092 C 51.560 108.564,51.200 109.187,51.200 109.475 C 51.200 109.764,51.020 110.000,50.800 110.000 C 50.580 110.000,50.400 110.193,50.400 110.428 C 50.400 110.663,49.889 111.608,49.265 112.528 C 48.641 113.448,47.877 114.785,47.568 115.500 C 47.258 116.215,46.869 116.800,46.702 116.800 C 46.536 116.800,46.400 117.160,46.400 117.600 C 46.400 118.040,46.220 118.400,46.000 118.400 C 45.780 118.400,45.600 118.760,45.600 119.200 C 45.600 119.640,45.420 120.000,45.200 120.000 C 44.980 120.000,44.800 120.243,44.800 120.540 C 44.800 120.838,44.350 121.927,43.800 122.962 C 43.250 123.996,42.800 125.193,42.800 125.621 C 42.800 126.050,42.654 126.400,42.475 126.400 C 42.296 126.400,41.902 127.030,41.600 127.800 C 41.298 128.570,40.904 129.200,40.725 129.200 C 40.546 129.200,40.400 129.650,40.400 130.200 C 40.400 130.750,40.220 131.200,40.000 131.200 C 39.780 131.200,39.600 131.650,39.600 132.200 C 39.600 132.750,39.420 133.200,39.200 133.200 C 38.980 133.200,38.800 133.549,38.800 133.976 C 38.800 134.403,38.620 134.864,38.400 135.000 C 38.180 135.136,38.000 135.687,38.000 136.224 C 38.000 136.761,37.853 137.200,37.672 137.200 C 37.492 137.200,37.100 138.100,36.800 139.200 C 36.500 140.300,36.108 141.200,35.928 141.200 C 35.747 141.200,35.600 141.740,35.600 142.400 C 35.600 143.060,35.420 143.600,35.200 143.600 C 34.980 143.600,34.800 144.140,34.800 144.800 C 34.800 145.460,34.620 146.000,34.400 146.000 C 34.180 146.000,34.000 146.439,34.000 146.976 C 34.000 147.513,33.820 148.064,33.600 148.200 C 33.380 148.336,33.200 149.067,33.200 149.824 C 33.200 150.581,33.020 151.200,32.800 151.200 C 32.580 151.200,32.400 151.729,32.400 152.376 C 32.400 153.023,32.220 153.664,32.000 153.800 C 31.780 153.936,31.600 154.667,31.600 155.424 C 31.600 156.181,31.420 156.800,31.200 156.800 C 30.980 156.800,30.800 157.509,30.800 158.376 C 30.800 159.243,30.620 160.064,30.400 160.200 C 30.180 160.336,30.000 161.056,30.000 161.800 C 30.000 162.544,29.820 163.264,29.600 163.400 C 29.380 163.536,29.200 164.526,29.200 165.600 C 29.200 166.674,29.020 167.664,28.800 167.800 C 28.580 167.936,28.400 168.901,28.400 169.944 C 28.400 170.987,28.226 172.014,28.013 172.227 C 27.801 172.439,27.503 175.355,27.352 178.707 C 27.201 182.058,26.925 184.800,26.738 184.800 C 26.552 184.800,26.400 191.640,26.400 200.000 C 26.400 208.360,26.552 215.200,26.738 215.200 C 26.925 215.200,27.200 217.921,27.350 221.248 C 27.500 224.574,27.798 227.622,28.011 228.021 C 28.225 228.421,28.400 229.469,28.400 230.350 C 28.400 231.232,28.580 232.064,28.800 232.200 C 29.020 232.336,29.200 233.326,29.200 234.400 C 29.200 235.474,29.380 236.464,29.600 236.600 C 29.820 236.736,30.000 237.456,30.000 238.200 C 30.000 238.944,30.180 239.664,30.400 239.800 C 30.620 239.936,30.800 240.757,30.800 241.624 C 30.800 242.491,30.980 243.200,31.200 243.200 C 31.420 243.200,31.600 243.819,31.600 244.576 C 31.600 245.333,31.780 246.064,32.000 246.200 C 32.220 246.336,32.400 246.977,32.400 247.624 C 32.400 248.271,32.580 248.800,32.800 248.800 C 33.020 248.800,33.200 249.520,33.200 250.400 C 33.200 251.280,33.380 252.000,33.600 252.000 C 33.820 252.000,34.000 252.439,34.000 252.976 C 34.000 253.513,34.180 254.064,34.400 254.200 C 34.620 254.336,34.800 254.887,34.800 255.424 C 34.800 255.961,34.980 256.400,35.200 256.400 C 35.420 256.400,35.600 256.940,35.600 257.600 C 35.600 258.260,35.780 258.800,36.000 258.800 C 36.220 258.800,36.400 259.239,36.400 259.776 C 36.400 260.313,36.580 260.864,36.800 261.000 C 37.020 261.136,37.200 261.597,37.200 262.024 C 37.200 262.451,37.380 262.800,37.600 262.800 C 37.820 262.800,38.000 263.340,38.000 264.000 C 38.000 264.660,38.180 265.200,38.400 265.200 C 38.620 265.200,38.800 265.560,38.800 266.000 C 38.800 266.440,38.980 266.800,39.200 266.800 C 39.420 266.800,39.600 267.239,39.600 267.776 C 39.600 268.313,39.780 268.864,40.000 269.000 C 40.220 269.136,40.400 269.597,40.400 270.024 C 40.400 270.451,40.580 270.800,40.800 270.800 C 41.020 270.800,41.200 271.160,41.200 271.600 C 41.200 272.040,41.380 272.400,41.600 272.400 C 41.820 272.400,42.000 272.760,42.000 273.200 C 42.000 273.640,42.180 274.000,42.400 274.000 C 42.620 274.000,42.800 274.349,42.800 274.776 C 42.800 275.203,42.966 275.655,43.169 275.781 C 43.372 275.906,43.657 276.547,43.801 277.205 C 43.945 277.862,44.229 278.400,44.432 278.400 C 44.634 278.400,44.800 278.760,44.800 279.200 C 44.800 279.640,44.980 280.000,45.200 280.000 C 45.420 280.000,45.600 280.360,45.600 280.800 C 45.600 281.240,45.780 281.600,46.000 281.600 C 46.220 281.600,46.400 281.960,46.400 282.400 C 46.400 282.840,46.580 283.200,46.800 283.200 C 47.020 283.200,47.200 283.560,47.200 284.000 C 47.200 284.440,47.380 284.800,47.600 284.800 C 47.820 284.800,48.000 285.036,48.000 285.325 C 48.000 285.613,48.360 286.236,48.800 286.708 C 49.240 287.180,49.600 287.844,49.600 288.183 C 49.600 288.522,49.736 288.800,49.902 288.800 C 50.069 288.800,50.429 289.306,50.703 289.925 C 50.976 290.544,51.560 291.436,52.000 291.908 C 52.440 292.380,52.800 293.004,52.800 293.295 C 52.800 293.586,53.160 294.083,53.600 294.400 C 54.040 294.717,54.400 295.257,54.400 295.600 C 54.400 295.943,54.760 296.483,55.200 296.800 C 55.640 297.117,56.000 297.657,56.000 298.000 C 56.000 298.343,56.360 298.883,56.800 299.200 C 57.240 299.517,57.600 299.980,57.600 300.229 C 57.600 300.478,58.140 301.246,58.800 301.937 C 59.460 302.628,60.000 303.386,60.000 303.623 C 60.000 304.072,61.676 306.267,63.900 308.728 C 64.615 309.519,65.200 310.319,65.200 310.505 C 65.200 310.692,66.280 311.904,67.600 313.200 C 68.920 314.496,70.000 315.744,70.000 315.973 C 70.000 316.525,83.466 330.000,84.018 330.000 C 84.252 330.000,85.504 331.080,86.800 332.400 C 88.096 333.720,89.319 334.800,89.519 334.800 C 89.718 334.800,90.404 335.295,91.042 335.900 C 92.669 337.441,98.264 341.600,98.711 341.600 C 98.915 341.600,99.646 342.140,100.337 342.800 C 101.028 343.460,101.825 344.000,102.108 344.000 C 102.391 344.000,102.883 344.360,103.200 344.800 C 103.517 345.240,104.057 345.600,104.400 345.600 C 104.743 345.600,105.283 345.960,105.600 346.400 C 105.917 346.840,106.414 347.200,106.705 347.200 C 106.996 347.200,107.620 347.560,108.092 348.000 C 108.564 348.440,109.187 348.800,109.475 348.800 C 109.764 348.800,110.000 348.936,110.000 349.102 C 110.000 349.269,110.585 349.664,111.300 349.980 C 112.015 350.297,112.949 350.880,113.375 351.278 C 113.802 351.675,114.387 352.000,114.675 352.000 C 114.964 352.000,115.200 352.180,115.200 352.400 C 115.200 352.620,115.560 352.800,116.000 352.800 C 116.440 352.800,116.800 352.980,116.800 353.200 C 116.800 353.420,117.160 353.600,117.600 353.600 C 118.040 353.600,118.400 353.780,118.400 354.000 C 118.400 354.220,118.760 354.400,119.200 354.400 C 119.640 354.400,120.000 354.580,120.000 354.800 C 120.000 355.020,120.360 355.200,120.800 355.200 C 121.240 355.200,121.600 355.380,121.600 355.600 C 121.600 355.820,121.960 356.000,122.400 356.000 C 122.840 356.000,123.201 356.135,123.203 356.300 C 123.207 356.659,125.144 357.600,125.880 357.600 C 126.166 357.600,126.400 357.760,126.400 357.955 C 126.400 358.151,127.030 358.429,127.800 358.574 C 128.570 358.718,129.200 359.008,129.200 359.218 C 129.200 359.428,129.650 359.600,130.200 359.600 C 130.750 359.600,131.200 359.780,131.200 360.000 C 131.200 360.220,131.650 360.400,132.200 360.400 C 132.750 360.400,133.200 360.580,133.200 360.800 C 133.200 361.020,133.549 361.200,133.976 361.200 C 134.403 361.200,134.864 361.380,135.000 361.600 C 135.136 361.820,135.687 362.000,136.224 362.000 C 136.761 362.000,137.200 362.180,137.200 362.400 C 137.200 362.620,137.549 362.800,137.976 362.800 C 138.403 362.800,138.864 362.980,139.000 363.200 C 139.136 363.420,139.687 363.600,140.224 363.600 C 140.761 363.600,141.200 363.780,141.200 364.000 C 141.200 364.220,141.740 364.400,142.400 364.400 C 143.060 364.400,143.600 364.580,143.600 364.800 C 143.600 365.020,144.140 365.200,144.800 365.200 C 145.460 365.200,146.000 365.380,146.000 365.600 C 146.000 365.820,146.439 366.000,146.976 366.000 C 147.513 366.000,148.064 366.180,148.200 366.400 C 148.336 366.620,149.067 366.800,149.824 366.800 C 150.581 366.800,151.200 366.980,151.200 367.200 C 151.200 367.420,151.729 367.600,152.376 367.600 C 153.023 367.600,153.664 367.780,153.800 368.000 C 153.936 368.220,154.667 368.400,155.424 368.400 C 156.181 368.400,156.800 368.580,156.800 368.800 C 156.800 369.020,157.509 369.200,158.376 369.200 C 159.243 369.200,160.064 369.380,160.200 369.600 C 160.336 369.820,161.157 370.000,162.024 370.000 C 162.891 370.000,163.600 370.180,163.600 370.400 C 163.600 370.620,164.464 370.800,165.520 370.800 C 166.576 370.800,167.611 370.963,167.820 371.161 C 168.029 371.360,169.100 371.634,170.200 371.770 C 171.300 371.907,173.550 372.198,175.200 372.417 C 183.674 373.545,186.836 373.709,200.000 373.701 C 214.558 373.692,220.792 373.438,222.200 372.797 C 222.640 372.597,224.080 372.339,225.400 372.225 C 230.743 371.760,232.400 371.509,232.400 371.163 C 232.400 370.963,233.300 370.800,234.400 370.800 C 235.500 370.800,236.400 370.620,236.400 370.400 C 236.400 370.180,237.109 370.000,237.976 370.000 C 238.843 370.000,239.664 369.820,239.800 369.600 C 239.936 369.380,240.757 369.200,241.624 369.200 C 242.491 369.200,243.200 369.020,243.200 368.800 C 243.200 368.580,243.819 368.400,244.576 368.400 C 245.333 368.400,246.064 368.220,246.200 368.000 C 246.336 367.780,246.977 367.600,247.624 367.600 C 248.271 367.600,248.800 367.420,248.800 367.200 C 248.800 366.980,249.419 366.800,250.176 366.800 C 250.933 366.800,251.664 366.620,251.800 366.400 C 251.936 366.180,252.476 366.000,253.000 366.000 C 253.524 366.000,254.064 365.820,254.200 365.600 C 254.336 365.380,254.887 365.200,255.424 365.200 C 255.961 365.200,256.400 365.020,256.400 364.800 C 256.400 364.580,256.940 364.400,257.600 364.400 C 258.260 364.400,258.800 364.220,258.800 364.000 C 258.800 363.780,259.239 363.600,259.776 363.600 C 260.313 363.600,260.864 363.420,261.000 363.200 C 261.136 362.980,261.597 362.800,262.024 362.800 C 262.451 362.800,262.800 362.620,262.800 362.400 C 262.800 362.180,263.239 362.000,263.776 362.000 C 264.313 362.000,264.864 361.820,265.000 361.600 C 265.136 361.380,265.597 361.200,266.024 361.200 C 266.451 361.200,266.800 361.020,266.800 360.800 C 266.800 360.580,267.149 360.400,267.576 360.400 C 268.003 360.400,268.464 360.220,268.600 360.000 C 268.736 359.780,269.287 359.600,269.824 359.600 C 270.361 359.600,270.800 359.420,270.800 359.200 C 270.800 358.980,271.069 358.800,271.397 358.800 C 272.231 358.800,275.200 357.477,275.200 357.106 C 275.200 356.938,275.560 356.800,276.000 356.800 C 276.440 356.800,276.800 356.620,276.800 356.400 C 276.800 356.180,277.160 356.000,277.600 356.000 C 278.040 356.000,278.400 355.820,278.400 355.600 C 278.400 355.380,278.760 355.200,279.200 355.200 C 279.640 355.200,280.000 355.020,280.000 354.800 C 280.000 354.580,280.360 354.400,280.800 354.400 C 281.240 354.400,281.600 354.220,281.600 354.000 C 281.600 353.780,281.960 353.600,282.400 353.600 C 282.840 353.600,283.200 353.420,283.200 353.200 C 283.200 352.980,283.560 352.800,284.000 352.800 C 284.440 352.800,284.800 352.620,284.800 352.400 C 284.800 352.180,285.036 352.000,285.325 352.000 C 285.613 352.000,286.236 351.640,286.708 351.200 C 287.180 350.760,287.844 350.400,288.183 350.400 C 288.522 350.400,288.800 350.264,288.800 350.098 C 288.800 349.931,289.306 349.571,289.925 349.297 C 290.544 349.024,291.436 348.440,291.908 348.000 C 292.380 347.560,293.004 347.200,293.295 347.200 C 293.586 347.200,294.083 346.840,294.400 346.400 C 294.717 345.960,295.257 345.600,295.600 345.600 C 295.943 345.600,296.483 345.240,296.800 344.800 C 297.117 344.360,297.631 344.000,297.941 344.000 C 298.252 344.000,298.797 343.685,299.153 343.300 C 299.509 342.915,300.430 342.254,301.200 341.830 C 301.970 341.407,302.690 340.941,302.800 340.796 C 302.910 340.651,303.291 340.367,303.646 340.166 C 304.731 339.551,307.307 337.472,308.682 336.100 C 309.399 335.385,310.181 334.800,310.419 334.800 C 310.657 334.800,311.695 333.940,312.726 332.889 C 313.757 331.838,315.230 330.540,316.000 330.004 C 317.818 328.739,328.739 317.818,330.004 316.000 C 330.540 315.230,331.838 313.757,332.889 312.726 C 333.940 311.695,334.800 310.657,334.800 310.419 C 334.800 310.181,335.385 309.399,336.100 308.682 C 337.472 307.307,339.551 304.731,340.166 303.646 C 340.367 303.291,340.651 302.910,340.796 302.800 C 340.941 302.690,341.407 301.970,341.830 301.200 C 342.254 300.430,342.915 299.509,343.300 299.153 C 343.685 298.797,344.000 298.252,344.000 297.941 C 344.000 297.631,344.360 297.117,344.800 296.800 C 345.240 296.483,345.600 295.943,345.600 295.600 C 345.600 295.257,345.960 294.717,346.400 294.400 C 346.840 294.083,347.200 293.586,347.200 293.295 C 347.200 293.004,347.560 292.380,348.000 291.908 C 348.440 291.436,349.024 290.544,349.297 289.925 C 349.571 289.306,349.931 288.800,350.098 288.800 C 350.264 288.800,350.400 288.522,350.400 288.183 C 350.400 287.844,350.760 287.180,351.200 286.708 C 351.640 286.236,352.000 285.613,352.000 285.325 C 352.000 285.036,352.180 284.800,352.400 284.800 C 352.620 284.800,352.800 284.440,352.800 284.000 C 352.800 283.560,352.980 283.200,353.200 283.200 C 353.420 283.200,353.600 282.840,353.600 282.400 C 353.600 281.960,353.780 281.600,354.000 281.600 C 354.220 281.600,354.400 281.240,354.400 280.800 C 354.400 280.360,354.580 280.000,354.800 280.000 C 355.020 280.000,355.200 279.640,355.200 279.200 C 355.200 278.760,355.380 278.400,355.600 278.400 C 355.820 278.400,356.000 278.040,356.000 277.600 C 356.000 277.160,356.180 276.800,356.400 276.800 C 356.620 276.800,356.800 276.440,356.800 276.000 C 356.800 275.560,356.938 275.200,357.106 275.200 C 357.477 275.200,358.800 272.231,358.800 271.397 C 358.800 271.069,358.980 270.800,359.200 270.800 C 359.420 270.800,359.600 270.361,359.600 269.824 C 359.600 269.287,359.780 268.736,360.000 268.600 C 360.220 268.464,360.400 268.003,360.400 267.576 C 360.400 267.149,360.580 266.800,360.800 266.800 C 361.020 266.800,361.200 266.451,361.200 266.024 C 361.200 265.597,361.380 265.136,361.600 265.000 C 361.820 264.864,362.000 264.313,362.000 263.776 C 362.000 263.239,362.180 262.800,362.400 262.800 C 362.620 262.800,362.800 262.451,362.800 262.024 C 362.800 261.597,362.980 261.136,363.200 261.000 C 363.420 260.864,363.600 260.313,363.600 259.776 C 363.600 259.239,363.780 258.800,364.000 258.800 C 364.220 258.800,364.400 258.260,364.400 257.600 C 364.400 256.940,364.580 256.400,364.800 256.400 C 365.020 256.400,365.200 255.961,365.200 255.424 C 365.200 254.887,365.380 254.336,365.600 254.200 C 365.820 254.064,366.000 253.524,366.000 253.000 C 366.000 252.476,366.180 251.936,366.400 251.800 C 366.620 251.664,366.800 250.933,366.800 250.176 C 366.800 249.419,366.980 248.800,367.200 248.800 C 367.420 248.800,367.600 248.271,367.600 247.624 C 367.600 246.977,367.780 246.336,368.000 246.200 C 368.220 246.064,368.400 245.333,368.400 244.576 C 368.400 243.819,368.580 243.200,368.800 243.200 C 369.020 243.200,369.200 242.491,369.200 241.624 C 369.200 240.757,369.380 239.936,369.600 239.800 C 369.820 239.664,370.000 238.843,370.000 237.976 C 370.000 237.109,370.180 236.400,370.400 236.400 C 370.620 236.400,370.800 235.500,370.800 234.400 C 370.800 233.300,370.963 232.400,371.163 232.400 C 371.509 232.400,371.760 230.743,372.225 225.400 C 372.339 224.080,372.597 222.640,372.797 222.200 C 374.071 219.403,374.069 180.997,372.795 178.200 C 372.595 177.760,372.342 176.230,372.233 174.800 C 371.913 170.608,371.548 168.227,371.161 167.820 C 370.963 167.611,370.800 166.576,370.800 165.520 C 370.800 164.464,370.620 163.600,370.400 163.600 C 370.180 163.600,370.000 162.891,370.000 162.024 C 370.000 161.157,369.820 160.336,369.600 160.200 C 369.380 160.064,369.200 159.243,369.200 158.376 C 369.200 157.509,369.020 156.800,368.800 156.800 C 368.580 156.800,368.400 156.181,368.400 155.424 C 368.400 154.667,368.220 153.936,368.000 153.800 C 367.780 153.664,367.600 153.023,367.600 152.376 C 367.600 151.729,367.420 151.200,367.200 151.200 C 366.980 151.200,366.800 150.581,366.800 149.824 C 366.800 149.067,366.620 148.336,366.400 148.200 C 366.180 148.064,366.000 147.513,366.000 146.976 C 366.000 146.439,365.820 146.000,365.600 146.000 C 365.380 146.000,365.200 145.460,365.200 144.800 C 365.200 144.140,365.020 143.600,364.800 143.600 C 364.580 143.600,364.400 143.060,364.400 142.400 C 364.400 141.740,364.220 141.200,364.000 141.200 C 363.780 141.200,363.600 140.761,363.600 140.224 C 363.600 139.687,363.420 139.136,363.200 139.000 C 362.980 138.864,362.800 138.403,362.800 137.976 C 362.800 137.549,362.620 137.200,362.400 137.200 C 362.180 137.200,362.000 136.761,362.000 136.224 C 362.000 135.687,361.820 135.136,361.600 135.000 C 361.380 134.864,361.200 134.403,361.200 133.976 C 361.200 133.549,361.020 133.200,360.800 133.200 C 360.580 133.200,360.400 132.750,360.400 132.200 C 360.400 131.650,360.220 131.200,360.000 131.200 C 359.780 131.200,359.600 130.750,359.600 130.200 C 359.600 129.650,359.428 129.200,359.218 129.200 C 359.008 129.200,358.718 128.570,358.574 127.800 C 358.429 127.030,358.151 126.400,357.955 126.400 C 357.760 126.400,357.600 126.166,357.600 125.880 C 357.600 125.144,356.659 123.207,356.300 123.203 C 356.135 123.201,356.000 122.840,356.000 122.400 C 356.000 121.960,355.820 121.600,355.600 121.600 C 355.380 121.600,355.200 121.240,355.200 120.800 C 355.200 120.360,355.020 120.000,354.800 120.000 C 354.580 120.000,354.400 119.640,354.400 119.200 C 354.400 118.760,354.220 118.400,354.000 118.400 C 353.780 118.400,353.600 118.040,353.600 117.600 C 353.600 117.160,353.420 116.800,353.200 116.800 C 352.980 116.800,352.800 116.440,352.800 116.000 C 352.800 115.560,352.620 115.200,352.400 115.200 C 352.180 115.200,352.000 114.964,352.000 114.675 C 352.000 114.387,351.675 113.802,351.278 113.375 C 350.880 112.949,350.297 112.015,349.980 111.300 C 349.664 110.585,349.269 110.000,349.102 110.000 C 348.936 110.000,348.800 109.764,348.800 109.475 C 348.800 109.187,348.440 108.564,348.000 108.092 C 347.560 107.620,347.200 106.996,347.200 106.705 C 347.200 106.414,346.840 105.917,346.400 105.600 C 345.960 105.283,345.600 104.743,345.600 104.400 C 345.600 104.057,345.240 103.517,344.800 103.200 C 344.360 102.883,344.000 102.391,344.000 102.108 C 344.000 101.825,343.460 101.028,342.800 100.337 C 342.140 99.646,341.600 98.915,341.600 98.711 C 341.600 98.264,337.441 92.669,335.900 91.042 C 335.295 90.404,334.800 89.718,334.800 89.519 C 334.800 89.319,333.720 88.096,332.400 86.800 C 331.080 85.504,330.000 84.252,330.000 84.018 C 330.000 83.466,316.525 70.000,315.973 70.000 C 315.744 70.000,314.496 68.920,313.200 67.600 C 311.904 66.280,310.692 65.200,310.505 65.200 C 310.319 65.200,309.519 64.615,308.728 63.900 C 306.267 61.676,304.072 60.000,303.623 60.000 C 303.386 60.000,302.628 59.460,301.937 58.800 C 301.246 58.140,300.438 57.600,300.141 57.600 C 299.843 57.600,299.600 57.450,299.600 57.268 C 299.600 57.085,299.105 56.681,298.500 56.370 C 297.895 56.060,297.109 55.489,296.753 55.103 C 296.397 54.716,295.852 54.400,295.541 54.400 C 295.231 54.400,294.717 54.040,294.400 53.600 C 294.083 53.160,293.586 52.800,293.295 52.800 C 293.004 52.800,292.380 52.440,291.908 52.000 C 291.436 51.560,290.544 50.976,289.925 50.703 C 289.306 50.429,288.800 50.069,288.800 49.902 C 288.800 49.736,288.522 49.600,288.183 49.600 C 287.844 49.600,287.180 49.240,286.708 48.800 C 286.236 48.360,285.613 48.000,285.325 48.000 C 285.036 48.000,284.800 47.820,284.800 47.600 C 284.800 47.380,284.440 47.200,284.000 47.200 C 283.560 47.200,283.200 47.020,283.200 46.800 C 283.200 46.580,282.840 46.400,282.400 46.400 C 281.960 46.400,281.600 46.220,281.600 46.000 C 281.600 45.780,281.240 45.600,280.800 45.600 C 280.360 45.600,280.000 45.420,280.000 45.200 C 280.000 44.980,279.640 44.800,279.200 44.800 C 278.760 44.800,278.400 44.634,278.400 44.432 C 278.400 44.229,277.862 43.945,277.205 43.801 C 276.547 43.657,275.906 43.372,275.781 43.169 C 275.655 42.966,275.203 42.800,274.776 42.800 C 274.349 42.800,274.000 42.620,274.000 42.400 C 274.000 42.180,273.640 42.000,273.200 42.000 C 272.760 42.000,272.400 41.820,272.400 41.600 C 272.400 41.380,272.040 41.200,271.600 41.200 C 271.160 41.200,270.800 41.020,270.800 40.800 C 270.800 40.580,270.451 40.400,270.024 40.400 C 269.597 40.400,269.136 40.220,269.000 40.000 C 268.864 39.780,268.313 39.600,267.776 39.600 C 267.239 39.600,266.800 39.420,266.800 39.200 C 266.800 38.980,266.440 38.800,266.000 38.800 C 265.560 38.800,265.200 38.620,265.200 38.400 C 265.200 38.180,264.660 38.000,264.000 38.000 C 263.340 38.000,262.800 37.820,262.800 37.600 C 262.800 37.380,262.451 37.200,262.024 37.200 C 261.597 37.200,261.136 37.020,261.000 36.800 C 260.864 36.580,260.313 36.400,259.776 36.400 C 259.239 36.400,258.800 36.220,258.800 36.000 C 258.800 35.780,258.260 35.600,257.600 35.600 C 256.940 35.600,256.400 35.420,256.400 35.200 C 256.400 34.980,255.961 34.800,255.424 34.800 C 254.887 34.800,254.336 34.620,254.200 34.400 C 254.064 34.180,253.524 34.000,253.000 34.000 C 252.476 34.000,251.936 33.820,251.800 33.600 C 251.664 33.380,250.933 33.200,250.176 33.200 C 249.419 33.200,248.800 33.020,248.800 32.800 C 248.800 32.580,248.271 32.400,247.624 32.400 C 246.977 32.400,246.336 32.220,246.200 32.000 C 246.064 31.780,245.333 31.600,244.576 31.600 C 243.819 31.600,243.200 31.420,243.200 31.200 C 243.200 30.980,242.491 30.800,241.624 30.800 C 240.757 30.800,239.936 30.620,239.800 30.400 C 239.664 30.180,238.944 30.000,238.200 30.000 C 237.456 30.000,236.736 29.820,236.600 29.600 C 236.464 29.380,235.474 29.200,234.400 29.200 C 233.326 29.200,232.336 29.020,232.200 28.800 C 232.064 28.580,231.232 28.400,230.350 28.400 C 229.469 28.400,228.421 28.225,228.021 28.011 C 227.622 27.798,224.574 27.500,221.248 27.350 C 217.921 27.200,215.200 26.925,215.200 26.738 C 215.200 26.552,208.360 26.400,200.000 26.400 C 191.640 26.400,184.800 26.552,184.800 26.738 M227.096 75.408 C 230.123 76.918,230.558 80.327,228.013 82.600 C 227.176 83.348,226.396 83.413,216.059 83.600 L 205.000 83.800 205.000 90.600 L 205.000 97.400 235.200 97.600 C 258.866 97.757,265.660 97.913,266.600 98.324 C 273.414 101.299,277.079 104.916,279.244 110.800 L 280.200 113.400 280.200 183.800 C 280.200 242.111,280.106 254.509,279.654 256.000 C 277.050 264.592,269.657 270.400,261.325 270.400 C 258.282 270.400,257.349 270.934,258.329 272.114 C 258.559 272.391,259.299 273.649,259.974 274.909 C 260.648 276.169,261.715 278.145,262.346 279.300 C 262.976 280.455,264.259 282.840,265.198 284.600 C 269.214 292.127,269.700 293.020,269.988 293.400 C 270.155 293.620,271.192 295.510,272.292 297.600 C 273.393 299.690,274.832 302.390,275.492 303.600 C 276.151 304.810,277.366 307.060,278.192 308.600 C 280.650 313.183,282.051 315.722,282.888 317.110 C 283.905 318.797,283.701 319.234,281.343 320.422 C 280.274 320.960,279.310 321.490,279.200 321.600 C 277.527 323.273,276.199 323.047,275.092 320.900 C 274.553 319.855,273.517 317.875,272.789 316.500 L 271.466 314.000 200.138 314.000 L 128.810 314.000 127.896 315.500 C 127.393 316.325,126.716 317.540,126.392 318.200 C 126.067 318.860,125.702 319.490,125.580 319.600 C 125.458 319.710,125.044 320.475,124.660 321.300 C 123.882 322.974,123.223 323.143,121.662 322.071 C 121.078 321.670,119.933 321.036,119.119 320.661 C 115.849 319.158,115.702 319.897,121.322 309.600 C 121.982 308.390,123.079 306.320,123.759 305.000 C 124.439 303.680,125.087 302.510,125.200 302.400 C 125.313 302.290,125.963 301.120,126.645 299.800 C 128.710 295.806,129.789 293.811,130.000 293.600 C 130.110 293.490,130.900 292.050,131.755 290.400 C 132.610 288.750,134.343 285.510,135.605 283.200 C 136.867 280.890,138.655 277.560,139.579 275.800 C 140.503 274.040,141.425 272.429,141.629 272.220 C 142.879 270.940,142.043 270.400,138.809 270.400 C 130.907 270.400,123.664 265.104,120.756 257.200 L 119.800 254.600 119.800 184.000 L 119.800 113.400 120.661 111.102 C 122.957 104.973,127.113 100.781,133.156 98.497 C 134.833 97.863,137.793 97.782,165.800 97.600 L 196.600 97.400 196.600 90.600 L 196.600 83.800 184.867 83.600 L 173.133 83.400 171.967 82.094 C 169.910 79.790,170.661 76.671,173.600 75.315 C 175.297 74.532,225.516 74.620,227.096 75.408 M139.400 114.265 C 137.543 115.244,136.407 116.431,135.360 118.487 L 134.400 120.373 134.409 144.887 C 134.417 167.835,134.465 169.504,135.154 171.022 C 135.969 172.815,138.946 175.600,140.048 175.600 C 140.436 175.600,140.864 175.780,141.000 176.000 C 141.315 176.510,258.104 176.556,259.105 176.047 C 259.487 175.852,260.308 175.455,260.928 175.164 C 262.443 174.453,263.918 172.929,264.840 171.121 C 265.834 169.173,266.036 121.415,265.061 119.087 C 262.977 114.116,261.437 113.599,248.716 113.605 L 238.200 113.609 240.000 114.746 C 240.990 115.371,243.510 116.926,245.600 118.200 C 251.977 122.089,254.484 123.646,257.295 125.460 C 258.778 126.417,260.145 127.200,260.333 127.200 C 260.522 127.200,261.002 127.561,261.401 128.002 C 263.213 130.003,260.238 131.751,258.000 130.000 C 257.450 129.570,256.855 129.214,256.678 129.209 C 256.501 129.204,255.296 128.480,254.000 127.600 C 252.704 126.720,251.454 126.000,251.222 126.000 C 250.990 126.000,250.800 125.820,250.800 125.600 C 250.800 125.380,250.603 125.200,250.362 125.200 C 250.121 125.200,249.446 124.861,248.862 124.447 C 248.278 124.033,247.170 123.335,246.400 122.897 C 245.630 122.458,243.830 121.381,242.400 120.504 C 240.970 119.626,237.851 117.714,235.469 116.254 L 231.138 113.600 200.069 113.602 C 173.755 113.605,169.153 113.688,170.000 114.145 C 171.515 114.963,181.439 121.058,184.495 123.046 C 185.978 124.011,187.292 124.800,187.417 124.800 C 187.803 124.800,192.203 127.881,192.739 128.527 C 193.149 129.020,193.146 129.297,192.727 129.969 C 191.812 131.434,190.055 130.928,185.730 127.952 C 184.809 127.318,183.943 126.800,183.806 126.800 C 183.669 126.800,182.496 126.080,181.200 125.200 C 179.904 124.320,178.654 123.600,178.422 123.600 C 178.190 123.600,178.000 123.420,178.000 123.200 C 178.000 122.980,177.843 122.800,177.651 122.800 C 177.365 122.800,169.759 118.292,163.600 114.471 C 161.732 113.313,141.533 113.140,139.400 114.265 M172.565 206.948 C 172.448 207.253,172.408 208.379,172.476 209.451 L 172.600 211.400 200.119 211.503 L 227.638 211.606 227.519 209.103 L 227.400 206.600 200.089 206.497 C 177.129 206.411,172.743 206.483,172.565 206.948 M172.669 219.064 C 172.521 219.212,172.400 220.383,172.400 221.667 L 172.400 224.000 200.019 224.000 L 227.638 224.000 227.519 221.500 L 227.400 219.000 200.169 218.897 C 185.193 218.841,172.818 218.916,172.669 219.064 M152.307 270.900 C 151.584 271.460,148.800 276.407,148.800 277.133 C 148.800 277.617,250.807 277.860,251.290 277.377 C 251.508 277.159,248.828 271.998,247.945 270.934 C 247.312 270.171,153.292 270.137,152.307 270.900 M142.768 287.900 C 142.456 288.505,142.110 289.090,141.998 289.200 C 141.887 289.310,141.245 290.480,140.572 291.800 C 139.899 293.120,138.524 295.730,137.516 297.600 C 134.323 303.524,134.000 304.177,134.000 304.694 C 134.000 305.238,265.585 305.482,266.128 304.939 C 266.271 304.795,265.871 303.760,265.239 302.639 C 263.964 300.378,261.347 295.483,259.445 291.800 C 258.763 290.480,258.113 289.310,258.002 289.200 C 257.890 289.090,257.544 288.505,257.232 287.900 L 256.665 286.800 200.000 286.800 L 143.335 286.800 142.768 287.900 " stroke="none" fill="#14838c" fill-rule="evenodd"></path><path id="path2" d="M139.556 237.554 C 132.908 238.944,129.173 247.449,132.598 253.400 C 134.002 255.840,137.134 258.400,138.715 258.400 C 139.114 258.400,139.639 258.599,139.881 258.841 C 140.313 259.273,142.773 259.162,145.442 258.592 C 149.374 257.751,152.782 252.986,152.793 248.311 C 152.811 241.017,146.710 236.058,139.556 237.554 M255.200 237.452 C 253.573 237.750,250.831 239.265,249.545 240.577 C 247.856 242.301,246.400 245.677,246.400 247.872 C 246.400 259.347,261.776 263.217,266.975 253.051 C 271.084 245.018,264.138 235.817,255.200 237.452 " stroke="none" fill="#44c4c4" fill-rule="evenodd"></path><path id="path3" d="M174.138 75.106 C 173.884 75.268,185.612 75.400,200.200 75.400 C 214.788 75.400,226.640 75.265,226.538 75.100 C 226.298 74.712,174.748 74.718,174.138 75.106 M228.114 76.520 C 228.601 77.026,229.074 77.387,229.164 77.323 C 229.398 77.155,227.942 75.600,227.552 75.600 C 227.374 75.600,227.627 76.014,228.114 76.520 M171.285 77.213 C 170.208 78.938,171.574 83.200,173.205 83.200 C 173.388 83.200,173.012 82.674,172.369 82.031 C 171.109 80.770,170.735 78.225,171.673 77.287 C 171.934 77.026,172.062 76.729,171.958 76.625 C 171.855 76.521,171.552 76.786,171.285 77.213 M229.289 79.500 C 229.296 80.588,229.378 80.782,229.587 80.206 C 229.840 79.512,229.707 78.000,229.393 78.000 C 229.331 78.000,229.284 78.675,229.289 79.500 M227.878 82.213 C 227.260 82.756,226.914 83.200,227.108 83.200 C 227.302 83.200,227.883 82.750,228.400 82.200 C 229.595 80.928,229.331 80.934,227.878 82.213 M177.800 83.482 C 187.813 83.765,196.801 83.774,196.800 83.500 C 196.800 83.335,191.625 83.238,185.300 83.284 C 178.975 83.331,175.600 83.420,177.800 83.482 M205.061 83.500 C 204.959 83.665,208.053 83.754,211.938 83.697 C 225.273 83.503,226.585 83.367,215.924 83.284 C 210.052 83.238,205.163 83.335,205.061 83.500 M135.000 98.019 C 134.442 98.271,134.685 98.307,135.800 98.138 C 136.680 98.004,137.475 97.828,137.567 97.747 C 137.910 97.444,135.768 97.671,135.000 98.019 M263.600 98.000 C 264.150 98.176,264.960 98.326,265.400 98.332 L 266.200 98.344 265.400 98.000 C 264.960 97.811,264.150 97.662,263.600 97.668 L 262.600 97.680 263.600 98.000 M128.600 100.740 C 125.675 102.536,120.800 108.830,120.800 110.810 C 120.800 111.083,121.428 110.053,122.195 108.520 C 123.519 105.873,126.541 102.507,129.200 100.715 C 130.555 99.803,130.095 99.822,128.600 100.740 M270.000 100.147 C 270.000 100.361,273.133 102.400,273.463 102.400 C 273.832 102.400,270.689 100.026,270.300 100.011 C 270.135 100.005,270.000 100.066,270.000 100.147 M275.610 105.072 C 276.321 105.882,277.419 107.637,278.051 108.972 C 278.682 110.307,279.200 111.166,279.200 110.881 C 279.200 109.551,275.509 103.643,274.659 103.612 C 274.471 103.606,274.899 104.262,275.610 105.072 M120.249 112.215 C 120.112 112.573,120.021 113.346,120.046 113.933 C 120.080 114.732,120.170 114.598,120.404 113.400 C 120.735 111.700,120.662 111.140,120.249 112.215 M279.468 113.000 C 279.771 114.977,280.002 115.314,279.994 113.767 C 279.991 113.125,279.816 112.330,279.605 112.000 C 279.345 111.591,279.301 111.910,279.468 113.000 M151.620 113.588 L 162.640 113.800 165.220 115.443 C 169.082 117.902,170.800 118.890,170.800 118.649 C 170.800 118.531,169.945 117.938,168.900 117.332 C 167.855 116.725,165.937 115.548,164.638 114.715 L 162.276 113.200 151.438 113.288 L 140.600 113.375 151.620 113.588 M168.800 113.500 C 168.800 113.772,190.982 113.769,220.200 113.493 C 226.360 113.435,217.315 113.345,200.100 113.294 C 182.885 113.242,168.800 113.335,168.800 113.500 M237.600 113.536 C 237.600 113.720,238.095 114.083,238.700 114.342 C 239.720 114.779,239.744 114.769,239.024 114.207 C 238.324 113.660,239.288 113.600,248.739 113.600 C 260.565 113.600,261.118 113.715,263.561 116.680 C 264.243 117.506,264.800 117.998,264.800 117.772 C 264.800 117.163,261.989 114.583,260.520 113.844 C 259.111 113.135,237.600 112.846,237.600 113.536 M231.600 113.748 C 231.600 113.866,232.658 114.582,233.952 115.340 C 235.245 116.098,236.775 117.027,237.352 117.405 C 237.928 117.783,238.400 118.000,238.400 117.888 C 238.400 117.694,236.399 116.387,233.100 114.426 C 232.275 113.936,231.600 113.631,231.600 113.748 M170.400 114.800 C 170.950 115.230,171.580 115.582,171.800 115.582 C 172.020 115.582,171.750 115.230,171.200 114.800 C 170.650 114.370,170.020 114.018,169.800 114.018 C 169.580 114.018,169.850 114.370,170.400 114.800 M136.748 115.900 C 135.447 117.328,134.395 119.037,134.418 119.686 C 134.427 119.969,134.808 119.480,135.263 118.600 C 135.718 117.720,136.553 116.505,137.120 115.900 C 137.686 115.295,138.060 114.800,137.950 114.800 C 137.840 114.800,137.299 115.295,136.748 115.900 M119.795 184.000 C 119.795 221.950,119.843 237.475,119.900 218.500 C 119.957 199.525,119.957 168.475,119.900 149.500 C 119.843 130.525,119.795 146.050,119.795 184.000 M280.195 184.000 C 280.195 221.950,280.243 237.475,280.300 218.500 C 280.357 199.525,280.357 168.475,280.300 149.500 C 280.243 130.525,280.195 146.050,280.195 184.000 M241.400 115.890 C 241.620 116.100,242.520 116.676,243.400 117.170 C 244.280 117.665,244.640 117.770,244.200 117.404 C 243.306 116.661,240.772 115.291,241.400 115.890 M174.200 116.996 C 175.094 117.739,177.628 119.109,177.000 118.510 C 176.780 118.300,175.880 117.724,175.000 117.230 C 174.120 116.735,173.760 116.630,174.200 116.996 M245.400 118.307 C 245.620 118.541,247.330 119.666,249.200 120.807 C 253.422 123.383,253.505 123.428,253.000 122.893 C 252.780 122.659,251.070 121.534,249.200 120.393 C 244.978 117.817,244.895 117.772,245.400 118.307 M178.200 119.407 C 178.640 119.766,179.360 120.235,179.800 120.451 L 180.600 120.844 179.800 120.193 C 179.360 119.834,178.640 119.365,178.200 119.149 L 177.400 118.756 178.200 119.407 M240.000 118.990 C 240.000 119.094,240.585 119.465,241.300 119.814 L 242.600 120.448 241.600 119.633 C 240.637 118.848,240.000 118.592,240.000 118.990 M172.400 119.779 C 172.400 119.889,172.940 120.259,173.600 120.600 C 174.260 120.941,174.800 121.131,174.800 121.021 C 174.800 120.911,174.260 120.541,173.600 120.200 C 172.940 119.859,172.400 119.669,172.400 119.779 M134.188 144.800 C 134.188 158.110,134.238 163.555,134.300 156.900 C 134.361 150.245,134.361 139.355,134.300 132.700 C 134.238 126.045,134.188 131.490,134.188 144.800 M180.800 120.935 C 180.800 121.037,181.401 121.475,182.135 121.908 C 182.869 122.341,183.994 123.011,184.635 123.395 L 185.800 124.095 184.800 123.267 C 183.657 122.321,180.800 120.656,180.800 120.935 M265.788 144.800 C 265.788 158.110,265.838 163.555,265.900 156.900 C 265.961 150.245,265.961 139.355,265.900 132.700 C 265.838 126.045,265.788 131.490,265.788 144.800 M244.800 121.967 C 245.763 122.752,246.400 123.008,246.400 122.610 C 246.400 122.506,245.815 122.135,245.100 121.786 L 243.800 121.152 244.800 121.967 M253.800 123.490 C 254.020 123.700,254.920 124.276,255.800 124.770 C 256.680 125.265,257.040 125.370,256.600 125.004 C 255.706 124.261,253.172 122.891,253.800 123.490 M180.400 124.501 C 180.400 124.755,183.496 126.800,183.880 126.800 C 184.044 126.800,183.823 126.558,183.389 126.261 C 181.481 124.959,180.400 124.322,180.400 124.501 M187.420 125.136 C 188.048 125.692,190.800 127.279,190.800 127.086 C 190.800 126.845,187.694 124.800,187.329 124.800 C 187.170 124.800,187.211 124.951,187.420 125.136 M184.400 126.897 C 184.400 127.150,188.705 130.000,189.087 130.000 C 189.364 130.000,188.192 129.156,185.500 127.418 C 184.895 127.028,184.400 126.793,184.400 126.897 M253.200 126.914 C 253.200 127.155,256.306 129.200,256.671 129.200 C 256.830 129.200,256.789 129.049,256.580 128.864 C 255.952 128.308,253.200 126.721,253.200 126.914 M191.931 128.147 C 192.403 128.778,192.675 129.498,192.536 129.747 C 192.394 130.001,192.522 129.978,192.827 129.695 C 193.280 129.273,193.180 129.007,192.222 128.095 L 191.073 127.000 191.931 128.147 M260.725 128.016 C 261.888 129.099,261.773 129.986,260.400 130.508 C 259.926 130.689,259.949 130.743,260.509 130.768 C 261.682 130.821,262.279 128.971,261.401 128.002 C 261.002 127.561,260.490 127.200,260.263 127.200 C 260.035 127.200,260.243 127.567,260.725 128.016 M258.000 129.964 C 258.550 130.414,259.180 130.783,259.400 130.785 C 259.828 130.788,259.105 130.234,257.800 129.560 C 257.269 129.285,257.336 129.421,258.000 129.964 M135.200 171.860 C 135.200 172.334,138.590 175.600,139.082 175.600 C 139.247 175.600,138.714 175.049,137.897 174.375 C 137.079 173.702,136.138 172.762,135.805 172.286 C 135.472 171.811,135.200 171.619,135.200 171.860 M171.100 176.700 C 186.995 176.758,213.005 176.758,228.900 176.700 C 244.795 176.642,231.790 176.595,200.000 176.595 C 168.210 176.595,155.205 176.642,171.100 176.700 M172.082 209.100 L 172.200 211.800 200.000 211.800 L 227.800 211.800 227.918 209.100 C 227.983 207.615,227.893 206.400,227.718 206.399 C 227.543 206.399,227.460 207.570,227.534 209.002 L 227.669 211.606 200.134 211.503 L 172.600 211.400 172.600 208.899 C 172.600 207.524,172.457 206.399,172.282 206.399 C 172.107 206.400,172.017 207.615,172.082 209.100 M172.054 221.500 C 172.111 224.298,172.279 223.987,172.486 220.700 C 172.552 219.655,172.469 218.800,172.303 218.800 C 172.136 218.800,172.025 220.015,172.054 221.500 M227.514 220.700 C 227.721 223.987,227.889 224.298,227.946 221.500 C 227.975 220.015,227.864 218.800,227.697 218.800 C 227.531 218.800,227.448 219.655,227.514 220.700 M186.300 224.300 C 193.835 224.361,206.165 224.361,213.700 224.300 C 221.235 224.239,215.070 224.189,200.000 224.189 C 184.930 224.189,178.765 224.239,186.300 224.300 M120.006 254.233 C 120.009 254.875,120.184 255.670,120.395 256.000 C 120.655 256.409,120.699 256.090,120.532 255.000 C 120.229 253.023,119.998 252.686,120.006 254.233 M279.660 254.067 C 279.627 254.654,279.496 255.464,279.370 255.867 C 279.152 256.560,279.165 256.561,279.595 255.890 C 279.846 255.499,279.977 254.689,279.886 254.090 L 279.720 253.000 279.660 254.067 M120.821 257.104 C 120.785 257.986,122.375 261.003,123.626 262.426 C 124.786 263.745,124.780 263.721,123.479 261.800 C 122.733 260.700,121.835 259.080,121.482 258.200 C 121.130 257.320,120.832 256.827,120.821 257.104 M277.908 259.466 C 277.308 260.660,276.959 261.549,277.134 261.441 C 277.569 261.172,279.368 257.631,279.164 257.445 C 279.074 257.363,278.509 258.272,277.908 259.466 M273.200 265.654 L 271.400 267.285 273.094 266.013 C 274.568 264.907,275.514 263.974,275.124 264.012 C 275.056 264.019,274.190 264.758,273.200 265.654 M126.768 265.896 C 128.263 267.134,131.200 268.952,131.200 268.640 C 131.200 268.526,130.416 267.975,129.459 267.413 C 128.501 266.852,127.393 266.034,126.997 265.596 C 126.600 265.158,126.089 264.800,125.861 264.800 C 125.633 264.800,126.041 265.293,126.768 265.896 M134.600 270.000 C 135.040 270.189,135.760 270.344,136.200 270.344 L 137.000 270.344 136.200 270.000 C 135.760 269.811,135.040 269.656,134.600 269.656 L 133.800 269.656 134.600 270.000 M264.200 270.000 C 263.696 270.217,263.622 270.344,264.000 270.344 C 264.330 270.344,264.960 270.189,265.400 270.000 C 265.904 269.783,265.978 269.656,265.600 269.656 C 265.270 269.656,264.640 269.811,264.200 270.000 M150.985 271.900 C 149.847 274.135,149.834 274.387,150.946 272.642 C 151.492 271.786,152.178 270.934,152.470 270.749 C 152.887 270.484,152.867 270.411,152.374 270.406 C 152.030 270.403,151.405 271.075,150.985 271.900 M248.237 271.400 C 248.597 271.950,248.957 272.400,249.037 272.400 C 249.117 272.400,248.978 271.950,248.727 271.400 C 248.477 270.850,248.116 270.400,247.927 270.400 C 247.737 270.400,247.876 270.850,248.237 271.400 M141.468 272.300 C 140.404 274.075,139.590 275.724,139.716 275.849 C 139.801 275.934,140.361 275.103,140.960 274.002 C 141.819 272.424,142.241 271.009,141.468 272.300 M258.586 273.100 C 258.935 273.815,259.306 274.400,259.410 274.400 C 259.808 274.400,259.552 273.763,258.767 272.800 L 257.952 271.800 258.586 273.100 M149.010 275.580 C 147.648 278.215,143.127 278.000,200.000 278.000 C 228.380 278.000,251.600 277.865,251.600 277.700 C 251.600 277.535,228.470 277.446,200.200 277.503 C 164.282 277.575,148.800 277.479,148.800 277.183 C 148.800 276.951,149.075 276.229,149.410 275.580 C 149.746 274.931,149.931 274.400,149.821 274.400 C 149.711 274.400,149.346 274.931,149.010 275.580 M250.600 275.600 C 250.941 276.260,251.311 276.800,251.421 276.800 C 251.531 276.800,251.341 276.260,251.000 275.600 C 250.659 274.940,250.289 274.400,250.179 274.400 C 250.069 274.400,250.259 274.940,250.600 275.600 M138.400 278.000 C 137.951 278.880,137.674 279.600,137.784 279.600 C 137.894 279.600,138.351 278.880,138.800 278.000 C 139.249 277.120,139.526 276.400,139.416 276.400 C 139.306 276.400,138.849 277.120,138.400 278.000 M260.986 277.500 C 261.335 278.215,261.706 278.800,261.810 278.800 C 262.208 278.800,261.952 278.163,261.167 277.200 L 260.352 276.200 260.986 277.500 M136.240 281.998 C 135.640 283.099,135.236 284.000,135.341 284.000 C 135.608 284.000,137.643 280.310,137.471 280.137 C 137.393 280.060,136.839 280.897,136.240 281.998 M264.173 283.400 C 264.989 284.940,265.842 286.380,266.067 286.600 C 266.292 286.820,265.816 285.740,265.009 284.200 C 264.202 282.660,263.350 281.220,263.115 281.000 C 262.881 280.780,263.357 281.860,264.173 283.400 M133.840 286.398 C 133.240 287.499,132.836 288.400,132.941 288.400 C 133.208 288.400,135.243 284.710,135.071 284.537 C 134.993 284.460,134.439 285.297,133.840 286.398 M142.793 287.299 C 142.399 288.112,142.411 288.132,142.922 287.500 C 143.456 286.839,146.667 286.800,200.111 286.800 L 256.733 286.800 257.264 288.000 C 257.556 288.660,257.949 289.200,258.137 289.200 C 258.325 289.200,258.108 288.615,257.655 287.900 L 256.832 286.600 200.031 286.499 L 143.230 286.397 142.793 287.299 M267.203 288.890 C 267.201 289.050,267.559 289.770,267.999 290.490 C 268.438 291.211,268.796 291.620,268.796 291.400 C 268.795 291.180,268.437 290.460,268.000 289.800 C 267.563 289.140,267.204 288.731,267.203 288.890 M269.600 293.350 C 269.600 293.641,271.671 297.200,271.841 297.200 C 271.936 297.200,271.557 296.300,271.000 295.200 C 270.131 293.486,269.600 292.783,269.600 293.350 M127.814 297.435 C 127.441 298.004,127.227 298.561,127.339 298.672 C 127.450 298.783,127.829 298.318,128.181 297.637 C 128.959 296.133,128.744 296.015,127.814 297.435 M135.400 300.800 C 134.843 301.900,134.477 302.800,134.587 302.800 C 134.697 302.800,135.243 301.900,135.800 300.800 C 136.357 299.700,136.723 298.800,136.613 298.800 C 136.503 298.800,135.957 299.700,135.400 300.800 M264.200 300.800 C 264.757 301.900,265.303 302.800,265.413 302.800 C 265.523 302.800,265.157 301.900,264.600 300.800 C 264.043 299.700,263.497 298.800,263.387 298.800 C 263.277 298.800,263.643 299.700,264.200 300.800 M133.748 303.843 C 133.599 304.259,133.404 304.735,133.315 304.900 C 133.226 305.065,133.322 305.200,133.530 305.200 C 133.929 305.200,134.491 303.557,134.194 303.260 C 134.097 303.164,133.897 303.426,133.748 303.843 M277.033 307.092 C 277.647 308.243,278.214 309.119,278.294 309.039 C 278.467 308.866,276.898 305.971,276.321 305.400 C 276.099 305.180,276.419 305.942,277.033 307.092 M122.630 307.152 C 121.769 308.544,119.569 312.921,119.890 312.600 C 120.412 312.080,123.270 306.800,123.031 306.800 C 122.930 306.800,122.749 306.958,122.630 307.152 M279.440 311.602 C 280.039 312.703,280.593 313.540,280.671 313.463 C 280.843 313.290,278.808 309.600,278.541 309.600 C 278.436 309.600,278.840 310.501,279.440 311.602 M128.313 314.300 C 127.614 315.101,126.686 316.800,126.946 316.800 C 127.042 316.800,127.493 316.170,127.947 315.400 L 128.773 314.000 200.042 314.000 C 267.436 314.000,271.343 314.038,271.878 314.700 C 272.389 315.332,272.402 315.312,272.008 314.500 L 271.572 313.600 200.248 313.600 C 132.820 313.600,128.891 313.638,128.313 314.300 M281.962 316.142 C 282.716 317.508,283.149 318.757,283.003 319.142 C 282.799 319.678,282.848 319.705,283.270 319.286 C 283.772 318.788,282.317 315.410,281.079 314.200 C 280.854 313.980,281.251 314.854,281.962 316.142 M117.853 316.100 L 117.133 317.400 117.958 316.400 C 118.689 315.513,119.014 314.800,118.686 314.800 C 118.624 314.800,118.249 315.385,117.853 316.100 M272.406 315.688 C 272.398 316.079,273.977 318.903,274.482 319.400 C 274.705 319.620,274.515 319.080,274.059 318.200 C 273.069 316.288,272.415 315.293,272.406 315.688 M280.800 320.400 C 280.030 320.822,279.544 321.174,279.720 321.183 C 280.144 321.205,282.400 320.032,282.400 319.790 C 282.400 319.528,282.377 319.537,280.800 320.400 M124.000 321.977 C 124.000 322.325,123.673 322.405,122.966 322.227 C 122.296 322.059,122.023 322.114,122.190 322.384 C 122.332 322.613,122.786 322.800,123.200 322.800 C 123.994 322.800,124.647 322.114,124.240 321.707 C 124.108 321.575,124.000 321.696,124.000 321.977 M275.668 322.000 C 275.922 322.768,277.148 323.013,277.742 322.414 C 278.087 322.066,278.026 322.019,277.495 322.221 C 277.105 322.370,276.495 322.246,276.130 321.945 C 275.566 321.479,275.499 321.487,275.668 322.000 " stroke="none" fill="#6fb2ba" fill-rule="evenodd"></path><path id="path4" d="M173.915 75.528 C 173.537 75.678,185.237 75.800,199.915 75.800 C 225.938 75.800,226.629 75.820,227.785 76.600 C 228.436 77.040,228.819 77.157,228.636 76.859 C 227.647 75.256,226.654 75.199,200.113 75.228 C 186.081 75.244,174.292 75.379,173.915 75.528 M228.840 79.174 C 228.812 80.403,228.523 81.264,227.900 81.974 L 227.000 83.000 228.059 82.068 C 229.241 81.029,229.583 79.893,229.162 78.400 C 228.938 77.608,228.871 77.769,228.840 79.174 M171.568 81.079 C 172.608 83.166,172.887 83.207,185.389 83.112 L 197.000 83.023 185.062 82.812 L 173.123 82.600 172.126 81.400 C 171.463 80.602,171.276 80.495,171.568 81.079 M204.643 83.433 C 204.142 84.737,204.373 97.615,204.900 97.808 C 205.175 97.908,218.686 98.038,234.925 98.095 C 251.164 98.153,264.034 98.083,263.525 97.940 C 263.016 97.797,249.591 97.662,233.691 97.640 L 204.782 97.600 204.891 90.500 L 205.000 83.400 216.000 83.190 L 227.000 82.981 215.943 82.890 C 206.175 82.811,204.857 82.874,204.643 83.433 M196.890 90.497 L 196.800 97.595 167.100 97.700 L 137.400 97.805 167.113 97.903 C 191.036 97.981,196.864 97.900,197.023 97.485 C 197.131 97.202,197.166 93.917,197.100 90.185 L 196.979 83.400 196.890 90.497 M132.500 99.034 C 130.707 99.818,130.860 100.121,132.700 99.429 C 133.525 99.119,134.470 98.774,134.800 98.664 C 135.200 98.530,135.134 98.464,134.600 98.464 C 134.160 98.465,133.215 98.721,132.500 99.034 M264.833 98.544 C 264.925 98.623,265.540 98.808,266.200 98.956 C 267.076 99.152,267.238 99.115,266.800 98.818 C 266.260 98.453,264.432 98.198,264.833 98.544 M267.633 99.349 C 268.045 99.717,270.400 100.800,270.400 100.621 C 270.400 100.390,268.182 99.200,267.753 99.200 C 267.596 99.200,267.542 99.267,267.633 99.349 M127.585 102.029 L 126.200 103.258 127.700 102.181 C 129.026 101.230,129.457 100.800,129.085 100.800 C 129.022 100.800,128.347 101.353,127.585 102.029 M124.344 105.100 C 123.075 106.632,122.619 107.342,123.081 107.065 C 123.593 106.758,125.369 104.400,125.089 104.400 C 124.998 104.400,124.663 104.715,124.344 105.100 M120.629 112.229 C 120.481 112.815,120.438 113.372,120.532 113.466 C 120.627 113.560,120.824 113.158,120.971 112.571 C 121.119 111.985,121.162 111.428,121.068 111.334 C 120.973 111.240,120.776 111.642,120.629 112.229 M142.200 112.800 C 141.727 113.003,145.647 113.144,151.800 113.144 C 157.953 113.144,161.873 113.003,161.400 112.800 C 160.960 112.611,156.640 112.456,151.800 112.456 C 146.960 112.456,142.640 112.611,142.200 112.800 M168.091 112.736 C 167.560 113.072,168.257 113.919,169.600 114.569 C 169.965 114.745,169.926 114.634,169.500 114.286 C 169.115 113.970,168.800 113.597,168.800 113.456 C 168.800 113.315,182.795 113.197,199.900 113.194 C 220.127 113.190,230.790 113.052,230.400 112.800 C 229.664 112.325,168.837 112.262,168.091 112.736 M236.904 112.664 C 236.165 112.962,237.145 113.804,240.860 116.060 C 244.675 118.378,245.600 118.885,245.600 118.659 C 245.600 118.566,243.807 117.435,241.616 116.145 C 239.424 114.855,237.624 113.665,237.616 113.500 C 237.607 113.335,242.415 113.182,248.300 113.160 C 254.286 113.138,258.559 112.979,258.000 112.800 C 256.923 112.455,237.727 112.331,236.904 112.664 M136.728 115.500 C 135.940 116.325,135.090 117.450,134.839 118.000 C 134.445 118.865,134.452 118.892,134.892 118.200 C 135.171 117.760,136.168 116.635,137.107 115.700 C 138.046 114.765,138.667 114.000,138.488 114.000 C 138.309 114.000,137.517 114.675,136.728 115.500 M232.800 114.190 C 232.800 114.294,233.385 114.665,234.100 115.014 L 235.400 115.648 234.400 114.833 C 233.437 114.048,232.800 113.792,232.800 114.190 M261.239 114.100 C 261.335 114.155,262.220 114.920,263.206 115.800 L 265.000 117.400 263.419 115.700 C 262.549 114.765,261.664 114.000,261.452 114.000 C 261.240 114.000,261.144 114.045,261.239 114.100 M120.196 184.000 C 120.196 222.170,120.243 237.785,120.300 218.700 C 120.357 199.615,120.357 168.385,120.300 149.300 C 120.243 130.215,120.196 145.830,120.196 184.000 M165.800 115.411 C 166.240 115.769,167.140 116.326,167.800 116.650 C 168.922 117.201,168.948 117.197,168.200 116.589 C 167.760 116.231,166.860 115.674,166.200 115.350 C 165.078 114.799,165.052 114.803,165.800 115.411 M279.796 184.000 C 279.796 222.170,279.843 237.785,279.900 218.700 C 279.957 199.615,279.957 168.385,279.900 149.300 C 279.843 130.215,279.796 145.830,279.796 184.000 M171.820 115.936 C 172.448 116.492,175.200 118.079,175.200 117.886 C 175.200 117.645,172.094 115.600,171.729 115.600 C 171.570 115.600,171.611 115.751,171.820 115.936 M236.800 116.514 C 236.800 116.755,239.906 118.800,240.271 118.800 C 240.430 118.800,240.389 118.649,240.180 118.464 C 239.552 117.908,236.800 116.321,236.800 116.514 M170.000 117.947 C 170.550 118.394,171.720 119.137,172.600 119.598 C 174.603 120.648,173.094 119.472,170.634 118.066 C 169.285 117.296,169.174 117.275,170.000 117.947 M176.200 118.611 C 176.640 118.969,177.540 119.526,178.200 119.850 C 179.322 120.401,179.348 120.397,178.600 119.789 C 178.160 119.431,177.260 118.874,176.600 118.550 C 175.478 117.999,175.452 118.003,176.200 118.611 M265.800 144.761 C 265.800 158.846,265.922 170.062,266.072 169.685 C 266.419 168.810,266.408 121.311,266.060 120.076 C 265.917 119.568,265.800 130.677,265.800 144.761 M133.852 120.500 C 133.519 121.744,133.591 168.837,133.928 169.685 C 134.078 170.062,134.200 158.947,134.200 144.985 C 134.200 131.023,134.176 119.600,134.147 119.600 C 134.117 119.600,133.985 120.005,133.852 120.500 M242.000 119.750 C 242.000 119.868,243.215 120.687,244.700 121.569 C 246.185 122.452,247.985 123.558,248.700 124.026 C 249.415 124.495,250.000 124.792,250.000 124.686 C 250.000 124.581,248.875 123.778,247.500 122.904 C 243.705 120.490,242.000 119.512,242.000 119.750 M174.400 120.501 C 174.400 120.755,177.496 122.800,177.880 122.800 C 178.044 122.800,177.823 122.558,177.389 122.261 C 175.481 120.959,174.400 120.322,174.400 120.501 M179.600 120.514 C 179.600 120.755,182.706 122.800,183.071 122.800 C 183.230 122.800,183.189 122.649,182.980 122.464 C 182.352 121.908,179.600 120.321,179.600 120.514 M249.200 121.167 C 250.163 121.952,250.800 122.208,250.800 121.810 C 250.800 121.706,250.215 121.335,249.500 120.986 L 248.200 120.352 249.200 121.167 M179.000 123.407 C 179.440 123.766,180.160 124.235,180.600 124.451 L 181.400 124.844 180.600 124.193 C 180.160 123.834,179.440 123.365,179.000 123.149 L 178.200 122.756 179.000 123.407 M252.400 122.914 C 252.400 123.155,255.506 125.200,255.871 125.200 C 256.030 125.200,255.989 125.049,255.780 124.864 C 255.152 124.308,252.400 122.721,252.400 122.914 M185.600 124.364 C 186.150 124.814,186.780 125.183,187.000 125.185 C 187.428 125.188,186.705 124.634,185.400 123.960 C 184.869 123.685,184.936 123.821,185.600 124.364 M251.011 125.339 C 252.919 126.641,254.000 127.278,254.000 127.099 C 254.000 126.845,250.904 124.800,250.520 124.800 C 250.356 124.800,250.577 125.042,251.011 125.339 M256.853 125.658 C 257.212 125.956,258.348 126.789,259.377 127.509 C 260.910 128.581,261.204 128.979,261.005 129.709 C 260.804 130.447,260.834 130.485,261.182 129.934 C 261.921 128.761,261.399 128.194,257.400 125.826 C 256.740 125.435,256.494 125.360,256.853 125.658 M190.900 127.590 C 191.601 128.148,192.002 128.854,192.006 129.533 C 192.011 130.359,192.098 130.465,192.390 130.002 C 192.852 129.272,192.155 128.103,190.771 127.286 C 189.984 126.821,190.009 126.879,190.900 127.590 M188.000 128.990 C 188.000 129.094,188.585 129.465,189.300 129.814 L 190.600 130.448 189.600 129.633 C 188.637 128.848,188.000 128.592,188.000 128.990 M135.881 173.362 C 136.277 173.891,136.960 174.542,137.400 174.810 C 137.840 175.078,137.580 174.645,136.822 173.848 C 135.231 172.177,134.848 171.979,135.881 173.362 M263.178 173.848 C 262.420 174.645,262.160 175.078,262.600 174.810 C 263.322 174.371,265.037 172.400,264.697 172.400 C 264.620 172.400,263.937 173.052,263.178 173.848 M260.400 175.800 C 259.850 176.114,258.950 176.403,258.400 176.440 C 257.491 176.503,257.479 176.524,258.273 176.679 C 259.063 176.832,261.600 175.850,261.600 175.390 C 261.600 175.129,261.536 175.150,260.400 175.800 M140.341 176.501 C 140.543 176.703,141.133 176.801,141.654 176.719 C 142.455 176.593,142.398 176.537,141.287 176.352 C 140.493 176.221,140.119 176.279,140.341 176.501 M186.100 206.300 C 193.745 206.361,206.255 206.361,213.900 206.300 C 221.545 206.239,215.290 206.189,200.000 206.189 C 184.710 206.189,178.455 206.239,186.100 206.300 M227.984 209.000 L 227.800 211.800 200.000 211.800 L 172.200 211.800 171.969 209.200 L 171.738 206.600 171.669 208.867 C 171.631 210.114,171.709 211.419,171.843 211.767 C 172.061 212.336,174.918 212.400,200.035 212.400 L 227.985 212.400 228.216 211.479 C 228.343 210.972,228.385 209.577,228.308 208.379 L 228.169 206.200 227.984 209.000 M200.000 218.699 L 228.000 218.805 228.000 221.369 C 228.000 222.780,227.816 224.025,227.590 224.137 C 227.365 224.249,227.410 224.293,227.690 224.237 C 228.044 224.165,228.200 223.288,228.200 221.367 L 228.200 218.600 200.100 218.596 L 172.000 218.592 200.000 218.699 M171.765 221.568 C 171.791 223.491,171.951 224.177,172.400 224.299 C 172.820 224.412,172.857 224.359,172.523 224.121 C 172.260 223.934,171.974 222.705,171.887 221.390 L 171.730 219.000 171.765 221.568 M138.130 237.455 C 128.412 240.898,128.515 255.142,138.283 258.797 C 149.447 262.974,158.544 248.624,150.091 240.171 C 148.598 238.678,146.474 237.392,146.107 237.759 C 145.987 237.879,146.344 238.151,146.900 238.362 C 155.292 241.553,154.199 256.720,145.442 258.592 C 142.773 259.162,140.313 259.273,139.881 258.841 C 139.639 258.599,139.114 258.400,138.715 258.400 C 138.316 258.400,137.597 258.175,137.118 257.900 C 127.034 252.114,130.746 237.440,142.294 237.440 C 144.158 237.440,145.350 237.309,144.942 237.148 C 143.696 236.658,139.896 236.829,138.130 237.455 M254.506 237.126 C 254.234 237.299,255.536 237.440,257.400 237.440 C 259.264 237.440,260.566 237.299,260.294 237.126 C 260.022 236.953,258.720 236.812,257.400 236.812 C 256.080 236.812,254.778 236.953,254.506 237.126 M250.755 238.974 C 243.347 244.410,244.901 255.576,253.515 258.807 C 262.203 262.065,271.231 253.414,268.184 244.750 C 266.984 241.338,263.001 237.159,261.486 237.724 C 261.219 237.823,261.475 238.094,262.056 238.326 C 267.312 240.422,269.731 247.662,266.975 253.051 C 261.776 263.217,246.400 259.347,246.400 247.872 C 246.400 246.518,246.584 245.890,247.830 243.000 C 248.516 241.408,250.481 239.443,252.205 238.624 C 253.654 237.937,253.957 237.593,253.100 237.610 C 252.825 237.615,251.770 238.229,250.755 238.974 M120.456 254.800 C 120.456 255.130,120.611 255.760,120.800 256.200 C 121.017 256.704,121.144 256.778,121.144 256.400 C 121.144 256.070,120.989 255.440,120.800 255.000 C 120.583 254.496,120.456 254.422,120.456 254.800 M279.049 255.415 C 278.912 255.773,278.815 256.366,278.834 256.733 C 278.853 257.100,279.027 256.869,279.221 256.220 C 279.598 254.958,279.465 254.333,279.049 255.415 M124.606 263.311 C 125.214 264.142,125.796 264.738,125.898 264.635 C 126.001 264.532,125.504 263.852,124.793 263.124 L 123.500 261.800 124.606 263.311 M274.074 264.320 C 273.564 264.848,273.218 265.352,273.305 265.439 C 273.392 265.526,273.885 265.148,274.400 264.600 C 274.915 264.052,275.261 263.548,275.168 263.481 C 275.076 263.414,274.583 263.792,274.074 264.320 M126.998 265.537 C 127.434 266.052,128.153 266.659,128.596 266.886 C 129.445 267.321,129.321 267.187,127.403 265.594 C 126.248 264.635,126.234 264.633,126.998 265.537 M271.281 266.572 C 269.629 267.740,269.368 268.000,269.848 268.000 C 270.058 268.000,270.853 267.467,271.615 266.816 C 273.272 265.400,273.108 265.280,271.281 266.572 M130.400 267.967 C 130.950 268.415,131.655 268.786,131.967 268.791 C 132.694 268.803,132.512 268.652,130.800 267.827 L 129.400 267.152 130.400 267.967 M136.200 270.028 C 136.640 270.202,138.260 270.342,139.800 270.340 C 143.346 270.336,142.758 270.114,138.600 269.888 C 136.827 269.791,135.757 269.854,136.200 270.028 M260.332 269.966 C 257.264 270.200,256.371 270.488,257.173 270.984 C 257.408 271.129,257.600 271.057,257.600 270.824 C 257.600 270.567,258.743 270.389,260.500 270.372 C 262.095 270.356,263.760 270.189,264.200 270.000 L 265.000 269.656 264.200 269.694 C 263.760 269.715,262.019 269.838,260.332 269.966 M175.900 270.300 C 189.155 270.358,210.845 270.358,224.100 270.300 C 237.355 270.241,226.510 270.194,200.000 270.194 C 173.490 270.194,162.645 270.241,175.900 270.300 M150.600 272.000 C 150.259 272.660,150.069 273.200,150.179 273.200 C 150.289 273.200,150.659 272.660,151.000 272.000 C 151.341 271.340,151.531 270.800,151.421 270.800 C 151.311 270.800,150.941 271.340,150.600 272.000 M249.000 272.000 C 249.341 272.660,249.711 273.200,249.821 273.200 C 249.931 273.200,249.741 272.660,249.400 272.000 C 249.059 271.340,248.689 270.800,248.579 270.800 C 248.469 270.800,248.659 271.340,249.000 272.000 M258.415 273.400 C 258.417 273.620,258.786 274.250,259.236 274.800 C 259.779 275.464,259.915 275.531,259.640 275.000 C 258.966 273.695,258.412 272.972,258.415 273.400 M250.000 273.701 C 250.000 273.855,250.359 274.570,250.799 275.290 C 252.614 278.267,257.624 278.000,200.000 278.000 C 143.955 278.000,147.651 278.146,148.814 275.974 C 149.042 275.548,149.123 275.200,148.995 275.200 C 148.442 275.200,147.670 277.796,148.135 278.092 C 148.685 278.442,250.847 278.510,251.757 278.161 C 252.308 277.950,252.313 277.767,251.806 276.553 C 251.210 275.127,250.000 273.216,250.000 273.701 M139.800 276.000 C 139.459 276.660,139.269 277.200,139.379 277.200 C 139.489 277.200,139.859 276.660,140.200 276.000 C 140.541 275.340,140.731 274.800,140.621 274.800 C 140.511 274.800,140.141 275.340,139.800 276.000 M260.815 277.800 C 260.817 278.020,261.186 278.650,261.636 279.200 C 262.179 279.864,262.315 279.931,262.040 279.400 C 261.366 278.095,260.812 277.372,260.815 277.800 M134.200 286.400 C 133.859 287.060,133.669 287.600,133.779 287.600 C 133.889 287.600,134.259 287.060,134.600 286.400 C 134.941 285.740,135.131 285.200,135.021 285.200 C 134.911 285.200,134.541 285.740,134.200 286.400 M143.062 286.300 C 142.960 286.465,168.582 286.600,200.000 286.600 C 231.418 286.600,257.040 286.465,256.938 286.300 C 256.836 286.135,231.214 286.000,200.000 286.000 C 168.786 286.000,143.164 286.135,143.062 286.300 M131.761 290.900 C 131.398 291.615,130.465 293.370,129.688 294.800 C 128.911 296.230,128.464 297.220,128.696 297.000 C 129.270 296.454,132.929 289.600,132.647 289.600 C 132.522 289.600,132.124 290.185,131.761 290.900 M267.800 290.800 C 268.141 291.460,268.511 292.000,268.621 292.000 C 268.731 292.000,268.541 291.460,268.200 290.800 C 267.859 290.140,267.489 289.600,267.379 289.600 C 267.269 289.600,267.459 290.140,267.800 290.800 M139.877 291.900 C 138.489 294.345,135.989 299.301,136.295 299.000 C 136.837 298.467,140.506 291.600,140.248 291.600 C 140.138 291.600,139.971 291.735,139.877 291.900 M260.609 293.502 C 261.225 294.658,261.799 295.534,261.884 295.449 C 262.070 295.263,260.501 292.368,259.906 291.800 C 259.676 291.580,259.992 292.346,260.609 293.502 M270.640 296.002 C 271.239 297.103,271.793 297.940,271.871 297.863 C 272.043 297.690,270.008 294.000,269.741 294.000 C 269.636 294.000,270.040 294.901,270.640 296.002 M263.843 299.500 C 264.880 301.425,265.851 303.180,266.002 303.400 C 267.328 305.337,272.337 305.200,200.000 305.200 C 136.586 305.200,133.236 305.165,133.450 304.500 C 133.639 303.915,133.606 303.898,133.254 304.397 C 133.023 304.725,132.970 305.130,133.138 305.298 C 133.839 305.999,267.008 305.450,266.893 304.747 C 266.768 303.984,262.442 296.000,262.153 296.000 C 262.046 296.000,262.806 297.575,263.843 299.500 M273.206 300.475 C 273.198 300.852,275.614 305.303,276.096 305.800 C 276.310 306.020,275.933 305.120,275.259 303.800 C 273.930 301.198,273.216 300.041,273.206 300.475 M134.200 302.400 C 133.859 303.060,133.669 303.600,133.779 303.600 C 133.889 303.600,134.259 303.060,134.600 302.400 C 134.941 301.740,135.131 301.200,135.021 301.200 C 134.911 301.200,134.541 301.740,134.200 302.400 M124.234 304.789 C 123.421 306.335,122.844 307.600,122.951 307.600 C 123.216 307.600,126.022 302.288,125.848 302.115 C 125.773 302.039,125.046 303.243,124.234 304.789 M280.200 313.600 C 280.541 314.260,280.911 314.800,281.021 314.800 C 281.131 314.800,280.941 314.260,280.600 313.600 C 280.259 312.940,279.889 312.400,279.779 312.400 C 279.669 312.400,279.859 312.940,280.200 313.600 M127.846 314.186 C 126.924 315.593,127.047 315.903,128.031 314.652 L 128.861 313.596 200.393 313.698 C 239.735 313.754,271.840 313.665,271.738 313.500 C 271.636 313.335,239.364 313.200,200.022 313.200 L 128.492 313.200 127.846 314.186 M272.600 315.600 C 272.941 316.260,273.311 316.800,273.421 316.800 C 273.531 316.800,273.341 316.260,273.000 315.600 C 272.659 314.940,272.289 314.400,272.179 314.400 C 272.069 314.400,272.259 314.940,272.600 315.600 M117.814 316.635 C 117.441 317.204,117.227 317.761,117.339 317.872 C 117.450 317.983,117.829 317.518,118.181 316.837 C 118.959 315.333,118.744 315.215,117.814 316.635 M125.828 317.861 C 125.256 318.884,124.852 319.785,124.929 319.863 C 125.007 319.940,125.561 319.103,126.160 318.002 C 126.760 316.901,127.164 316.000,127.059 316.000 C 126.954 316.000,126.400 316.837,125.828 317.861 M282.378 317.474 C 283.035 318.833,282.976 318.903,279.765 320.589 L 276.738 322.178 275.942 321.189 C 275.185 320.248,275.168 320.245,275.599 321.123 C 276.316 322.583,276.877 322.541,280.136 320.783 C 283.328 319.062,283.611 318.666,282.578 317.376 C 281.977 316.626,281.970 316.630,282.378 317.474 M118.600 319.909 C 119.165 320.472,122.905 322.400,123.433 322.400 C 123.674 322.400,124.085 321.905,124.347 321.300 L 124.822 320.200 124.060 321.166 L 123.297 322.132 120.749 320.821 C 119.347 320.100,118.380 319.690,118.600 319.909 " stroke="none" fill="#8dc4cb" fill-rule="evenodd"></path></g></svg>